<svg width="91" height="60" viewBox="0 0 91 60" fill="none" xmlns="http://www.w3.org/2000/svg">
<path d="M90.4013 0H0.4375V60H90.4013V0Z" fill="#97BE0D"/>
<path d="M33.1953 14.0418C35.7732 14.2028 38.317 14.5026 40.5217 15.4065C38.4553 16.1747 36.8865 17.0828 35.0924 17.921L36.5105 12.0654C37.6346 14.2996 38.823 16.6738 39.4489 18.908C37.4056 16.9265 35.3155 15.4576 33.1953 14.0418Z" fill="white"/>
<path d="M44.5156 13.4468L50.3307 15.5462L45.7801 17.6759C46.2209 15.7632 46.7114 13.8258 47.3387 11.8203C47.999 14.2921 48.6787 16.8436 49.1524 19.2225C47.6781 17.1437 46.0756 15.3551 44.5156 13.4468Z" fill="white"/>
<path d="M56.0391 15.5105C57.7524 15.8002 59.5573 15.7253 61.3622 15.5109C59.8848 16.8315 58.3822 18.1269 56.8116 19.3547C57.5073 17.3917 58.1546 15.3805 58.7569 13.3242C59.1739 15.3485 59.5911 17.3729 60.008 19.3972C58.767 18.3427 57.3854 17.0476 56.0391 15.5105Z" fill="white"/>
<path d="M67.7031 15.3371C69.1259 14.9176 70.9706 13.8548 72.5693 13.0987C71.2398 14.8241 69.9104 16.453 68.5809 17.9919C69.0247 16.2187 69.6634 14.3744 70.245 12.4512C70.6899 13.7832 71.0284 15.0114 71.637 16.2153C70.3258 16.141 69.0143 15.8753 67.7031 15.3371Z" fill="white"/>
<path d="M62.7188 25.2704C65.1244 24.8457 66.7386 24.1203 68.6746 23.4518C66.9824 25.1764 64.9919 27.5175 63.5968 28.6251L65.7528 22.3496C66.237 24.0973 66.8155 25.7511 67.3908 27.408C65.7694 27.0196 64.2468 26.2168 62.7188 25.2704Z" fill="white"/>
<path d="M56.8438 33.1419C59.0233 33.6747 60.96 34.0549 63.2564 33.8769C61.8223 35.2526 60.0519 36.1262 58.249 36.9512C58.8481 35.1933 59.441 33.422 59.9482 31.4805C60.7041 33.458 61.3473 35.7857 62.2186 37.3085C60.0676 36.0389 58.444 34.5944 56.8438 33.1419Z" fill="white"/>
<path d="M50.5547 38.2489C52.575 39.1026 54.4899 39.9842 56.6158 40.3831C55.072 41.0548 53.5248 41.7228 51.8895 42.3031C52.3481 40.5844 52.7559 38.9707 53.3076 37.252C53.983 39.3965 54.7286 41.5178 55.6835 43.5699C53.862 42.1874 52.1088 40.1772 50.5547 38.2489Z" fill="white"/>
<path d="M42.2969 41.3972C44.364 41.9918 46.4314 42.8817 48.4985 43.8464C46.7732 44.5638 45.0876 45.3991 43.4558 46.396C44.1504 44.2656 44.9081 42.091 45.366 40.0156C46.0054 42.4828 46.847 45.0684 47.4608 47.5929C46.2137 46.1106 44.0145 43.2993 42.2969 41.3972Z" fill="white"/>
<path d="M29.9688 43.0412C32.3424 42.6221 34.6637 42.5165 36.9436 42.6568C34.7479 44.6102 32.9661 46.2888 31.0225 48.075C31.9286 45.2485 32.8348 42.4222 33.7409 39.5957C34.3088 42.2641 34.798 45.0895 35.2732 47.9424C33.8948 46.4104 31.8492 44.5634 29.9688 43.0412Z" fill="white"/>
<path d="M25.6406 21.7376C28.3137 20.9351 30.9141 20.8924 33.4942 21.1083L27.6081 24.9523C28.2446 22.9305 28.8627 20.9086 29.5885 18.8867C30.6955 20.8601 31.699 22.8342 32.5267 24.7148C30.6759 23.3847 28.1371 22.5167 25.6406 21.7376Z" fill="white"/>
<path d="M20.4766 33.1062C23.0827 31.7855 25.7238 30.7827 28.3301 30.7628L22.0223 36.8806L24.5649 28.5762C25.5153 30.7601 26.4518 33.1642 26.9408 35.3488C24.9396 34.4015 22.8483 33.5924 20.4766 33.1062Z" fill="white"/>
<path d="M15.9062 47.2389C17.3607 46.7139 19.938 44.7177 21.479 44.2787C25.7935 36.9106 43.1192 26.7274 51.1815 25.9104C51.408 25.8876 51.3817 26.0468 51.1907 26.1023C42.7364 28.5578 28.5421 36.2542 23.2325 44.6157C21.1907 47.8308 20.3893 48.2873 17.7331 51.328C18.5759 48.1028 19.4379 44.8713 20.5569 41.5545C21.5833 44.0763 22.3195 46.6944 23.0734 49.3064C20.9758 48.1789 18.4721 47.5274 15.9062 47.2389Z" fill="white"/>
</svg>
