<svg width="144" height="120" viewBox="0 0 144 120" fill="none" xmlns="http://www.w3.org/2000/svg">
<path d="M132.601 11.479C132.928 11.7621 135.771 14.1881 135.803 14.2157C135.873 14.2794 135.941 14.3417 136.008 14.4033C136.505 14.8571 136.975 15.2858 137.323 15.7771C137.716 16.3317 137.899 16.8874 137.899 17.5263C137.899 18.3935 137.635 19.0597 137.092 19.5632C136.395 20.2106 135.215 20.5931 133.586 20.6858H133.489V20.4734C133.526 20.4717 133.563 20.4696 133.599 20.4675C133.966 20.4283 134.244 20.3033 134.377 19.9398C134.518 19.5535 134.467 18.9694 133.903 18.4886C133.887 18.4753 131.553 16.485 130.716 15.7718L127.691 15.7526V15.5195C128.725 15.5815 129.344 14.602 128.356 13.7605L125.41 11.2214C125.015 10.8414 124.37 10.6217 123.871 11.0888C123.371 11.5556 123.518 12.3205 124.235 12.9L127.555 15.7526C127.566 15.7641 130.005 17.8584 130.005 17.8584C130.005 17.8584 131.403 19.122 131.608 18.9096L131.678 18.9792C130.583 20.0797 129.127 20.6858 127.578 20.6858C126.03 20.6858 124.574 20.0797 123.479 18.9792C122.384 17.8787 121.781 16.4153 121.781 14.8592C121.781 13.3031 122.384 11.8397 123.479 10.7392C124.451 9.76294 125.577 9.18136 126.737 9.05784C127.783 8.94622 128.821 9.21636 129.662 9.81788C129.744 9.87631 129.823 9.93755 129.9 10.0012C130.567 9.53339 131.444 9.23105 132.465 9.12853C133.476 9.0267 135.203 9.10683 136.624 9.80528L137.677 9.50924L137.103 12.7292L134.384 10.3918C133.418 9.4802 133.171 9.52429 132.843 9.55018C132.509 9.58273 132.211 9.83537 132.103 10.179C131.966 10.6133 132.147 11.087 132.601 11.479Z" fill="#DCD7D2"/>
<path d="M132.463 25.9315C138.835 24.4195 142.781 18.0017 141.277 11.5969C139.773 5.19218 133.387 1.22583 127.015 2.73785C120.642 4.24986 116.696 10.6677 118.2 17.0724C119.705 23.4772 126.09 27.4435 132.463 25.9315Z" stroke="#DCD7D2" stroke-width="1.316"/>
<path d="M59.7841 117.83C58.8288 118.575 58.1022 118.93 57.6611 119.097C57.4163 119.19 57.2304 119.235 57.1071 119.258L68.5904 95.2394H46.6405L46.651 107.292L46.847 106.958C50.3233 101.029 53.0671 98.2137 54.7571 96.8959C55.7128 96.1506 56.4394 95.7957 56.8801 95.6288C57.1253 95.5365 57.3112 95.4906 57.4344 95.4675L45.9525 119.503L67.9007 119.484L67.8903 107.434L67.6946 107.768C64.2179 113.697 61.4741 116.512 59.7841 117.83ZM44.891 95.127C43.0169 94.5189 41.0206 94.8464 39.4138 96.0257C38.4059 96.7654 37.5734 97.832 37.006 99.1106C36.678 99.8486 36.4367 100.653 36.2814 101.517L36.2759 95.2394H25.3162L26.9982 98.818L27.0132 115.972L25.3737 119.521L41.0536 119.508L36.294 115.934L36.2821 102.547C36.2811 102.203 36.3988 101.948 36.6418 101.769C37.579 101.074 40.2135 103.206 42.0925 104.342L44.9913 95.1596L44.891 95.127ZM11.4902 117.697C11.0721 117.525 10.4729 117.123 9.99385 116.179C9.5221 115.249 9.28222 114.023 9.28082 112.533C9.27943 111.043 9.51722 109.815 9.98758 108.885C10.4649 107.941 11.0634 107.537 11.4815 107.364C12.0657 107.123 12.6841 107.19 13.0246 107.53L13.0319 117.53C12.6921 117.869 12.0744 117.937 11.4902 117.697ZM23.972 119.563L22.3263 116.016L22.3158 104.127C22.3137 101.607 21.2821 99.2869 19.4108 97.5947C18.469 96.7433 17.3494 96.0788 16.0824 95.6197C14.8057 95.1571 13.4103 94.9143 11.9313 94.8996H11.7715C9.78391 94.9013 7.82031 95.2334 6.09345 95.8598C4.28268 96.5166 2.77447 97.4876 1.73243 98.6672L1.65549 98.7544L8.24332 103.576C8.24332 103.576 11.7889 95.2401 11.7917 95.2334C11.8182 95.2334 11.8474 95.2394 11.8474 95.2394C12.7593 95.4469 12.9744 98.0678 13.0193 100.716L13.0242 107.232C11.8652 106.108 10.4329 105.335 8.86721 104.992C7.29215 104.647 5.65825 104.773 4.26597 105.348C1.55209 106.468 -0.00278152 109.09 3.73554e-06 112.541C0.00174452 114.278 0.410481 115.773 1.21542 116.984C1.93053 118.06 2.96804 118.9 4.21653 119.412C5.16665 119.803 6.22888 120.001 7.31409 120C7.87148 120 8.43515 119.947 8.9922 119.84C10.5613 119.538 11.9867 118.826 13.0322 117.827L13.0336 119.572L23.972 119.563Z" fill="#DCD7D2"/>
<path d="M99.8737 62.5191L99.9252 62.6612C103.225 71.762 104.172 77.7957 104.386 81.2551C104.545 83.8322 104.33 85.5465 104.143 86.3261L95.5882 62.5226L85.3556 62.5317L85.4064 62.6734C88.4719 71.2094 89.4307 77.2764 89.695 80.8628C89.8906 83.517 89.7479 85.3922 89.6048 86.2852L81.0694 62.5355L70.8367 62.5443L79.5546 86.7971L89.718 86.788L91.4814 79.5737L94.0731 86.7842L104.228 86.7754L112.904 62.5075L99.8737 62.5191ZM71.3234 86.7964L69.6777 83.25L69.6662 69.7895C69.6631 66.4802 68.2785 64.0077 65.8668 63.0062C64.4672 62.425 62.8291 62.3851 61.1291 62.8907C59.436 63.3942 57.7523 64.4279 56.2427 65.8868L56.2152 57.2251L45.2917 57.2345L46.9375 60.781L46.9772 83.2699L45.3373 86.8192L57.9034 86.8083L56.2576 83.2619L56.243 66.188C56.6229 65.8665 57.1632 65.7975 57.6809 66.0124C58.1871 66.2227 58.9134 66.7938 59.4972 68.3194C60.087 69.8605 60.3875 72.001 60.3896 74.681L60.4 86.8062L71.3234 86.7964ZM39.7564 82.3699C37.7113 81.1133 35.2993 79.1314 32.9645 76.789C30.6302 74.4469 28.654 72.0262 27.4007 69.9728C26.1884 67.988 25.7911 66.5499 26.3053 66.032C26.4846 65.8514 26.7775 65.8007 27.1716 65.8854C28.5865 66.1894 31.1458 68.1581 33.8499 71.024C36.646 73.9868 38.8143 77.0752 39.6506 79.2853L39.7609 79.5765L43.8573 65.9116C41.4352 63.488 38.3164 62.1965 34.9811 62.1996C31.6461 62.2024 28.5123 63.5101 26.156 65.8826C23.8 68.2547 22.5038 71.4072 22.5066 74.7591C22.5097 78.111 23.8112 81.261 26.1713 83.6293C28.5318 85.9972 31.6684 87.3 35.003 87.2972C38.338 87.294 41.4721 85.986 43.8281 83.6139L43.6791 83.4641C43.1631 83.9834 41.7332 83.5848 39.7564 82.3699ZM19.4735 76.6802C18.7183 75.6167 17.701 74.6891 16.6238 73.7072C16.4776 73.5739 16.3303 73.4395 16.1796 73.3013C16.1096 73.2415 9.14957 67.2914 8.43967 66.679C7.45683 65.8311 7.06306 64.8055 7.35899 63.8645C7.5933 63.1199 8.23705 62.5723 8.96087 62.5016C9.6718 62.4449 10.812 62.6223 12.5009 64.8051L18.5665 72.5546L20.2276 63.1056L17.9492 63.7484C14.8694 62.2388 11.1292 62.0687 8.94067 62.2906C6.56102 62.532 4.54066 63.2739 3.06169 64.4251C1.37313 65.7391 0.481501 67.5422 0.483242 69.6393C0.484286 70.9169 0.869348 72.085 1.65966 73.2107C2.40959 74.2779 3.48192 75.249 4.52917 76.1388C4.60403 76.2025 12.0313 82.5239 12.0727 82.5592C13.2954 83.5988 13.4054 84.8638 13.1011 85.7005C12.8146 86.4882 12.1632 87.0039 11.3694 87.0897C11.2907 87.0942 11.211 87.0984 11.1313 87.1023C10.2605 87.1205 9.34001 86.696 7.67721 84.5664L1.31673 76.4363L0 83.919L0.0463049 83.9582C3.74234 87.1086 9.37447 87.3192 10.8427 87.3178C10.9777 87.3178 11.3889 87.3007 11.3889 87.3007C14.9182 87.0967 17.4716 86.2828 18.9808 84.8799C20.1555 83.7885 20.7254 82.3451 20.724 80.4674C20.7227 79.0834 20.3254 77.88 19.4735 76.6802Z" fill="#DCD7D2"/>
<path d="M39.1971 27.9431C39.0485 27.9518 38.9016 27.935 38.7525 27.9508C36.2507 28.2199 33.8216 29.4761 31.7285 31.5833C29.369 33.9593 28.0711 37.1163 28.0742 40.4732C28.077 43.83 29.3805 46.9845 31.7441 49.356C34.1078 51.7274 37.2489 53.0319 40.5884 53.0291C43.9282 53.0263 47.0672 51.7162 49.4267 49.3406L49.2773 49.1904C48.8359 49.6488 45.8173 46.9264 45.8173 46.9264C45.8173 46.9264 40.5522 42.4135 40.5281 42.3893L32.9944 35.9462C31.4447 34.697 31.1133 33.136 32.2051 32.0396C33.3192 31.0585 34.6721 31.5039 35.5251 32.3227L42.2536 38.0905C44.3857 39.9045 43.0519 42.0181 40.8209 41.8861V42.3893L47.6466 42.3757C48.9055 39.7978 49.2227 37.2133 48.6587 34.859C48.1942 32.9208 47.094 31.2247 45.5771 29.9789C45.5768 29.9789 45.5761 29.9796 45.5754 29.9803C45.4093 29.8425 45.2387 29.7106 45.0625 29.5846C44.611 29.2623 44.133 28.9848 43.6351 28.7525C42.1509 28.1034 40.4923 27.8696 38.8417 27.9616C38.8417 27.9616 38.9733 27.9546 39.1971 27.9431Z" fill="#DCD7D2"/>
<path d="M88.662 27.9431C88.5133 27.9518 88.3664 27.935 88.2177 27.9508C85.7155 28.2199 83.2864 29.4761 81.1933 31.5833C78.8339 33.9593 77.5359 37.1163 77.5391 40.4732C77.5419 43.83 78.8454 46.9845 81.209 49.356C83.5726 51.7274 86.7137 53.0319 90.0532 53.0291C93.3931 53.0263 96.5321 51.7162 98.8915 49.3406L98.7422 49.1904C98.3007 49.6488 95.2822 46.9264 95.2822 46.9264C95.2822 46.9264 90.017 42.4135 89.993 42.3893L82.4592 35.9462C80.9096 34.697 80.5785 33.136 81.6699 32.0396C82.784 31.0585 84.137 31.5039 84.99 32.3227L91.7185 38.0905C93.8506 39.9045 92.5168 42.0181 90.2858 41.8861V42.3893L97.1114 42.3757C98.3703 39.7978 98.6875 37.2133 98.1235 34.859C97.6591 32.9208 96.5589 31.2247 95.042 29.9789C95.0416 29.9789 95.0409 29.9796 95.0402 29.9803C94.8741 29.8425 94.7036 29.7106 94.5274 29.5846C94.0758 29.2623 93.5978 28.9848 93.0999 28.7525C91.6157 28.1034 89.9571 27.8696 88.3065 27.9616C88.3065 27.9616 88.4381 27.9546 88.662 27.9431Z" fill="#DCD7D2"/>
<path d="M100.376 52.3929L112.905 52.382L111.264 48.8461L111.241 22.7246L102.202 26.9622L100.661 27.6848L101.995 30.5597L102.01 48.8541L100.376 52.3929ZM63.8419 49.9945C63.3322 49.7944 62.5997 49.2107 62.004 47.5653C61.4003 45.8973 61.0925 43.5556 61.09 40.6057C61.0876 37.6562 61.3908 35.3142 61.9921 33.6447C62.5847 31.9986 63.3162 31.4132 63.8255 31.2124C64.3241 31.0157 64.8272 31.1074 65.1875 31.4549L65.2035 49.7496C64.8435 50.0977 64.3404 50.1901 63.8419 49.9945ZM76.097 52.4709L74.4561 48.9349L74.4335 22.8737L63.5425 22.8831L65.1833 26.4191L65.1875 31.1452C63.9589 29.8732 62.6254 29.0159 61.2192 28.5953C59.8078 28.1729 58.365 28.2247 57.0469 28.7447C55.3597 29.4103 53.9305 30.7987 52.9146 32.7594C51.8256 34.8607 51.2515 37.5768 51.2539 40.6145C51.2567 43.6521 51.8357 46.3672 52.9282 48.4667C53.9476 50.4256 55.3792 51.8113 57.0678 52.4741C57.7958 52.76 58.5617 52.9027 59.3388 52.9024C59.9697 52.9017 60.6082 52.8065 61.2397 52.6165C62.6453 52.1934 63.9777 51.3337 65.2039 50.0596L65.206 52.4804L76.097 52.4709Z" fill="#DCD7D2"/>
<path d="M136.305 117.407C136.305 115.889 136.201 115.586 134.144 115.072C132.611 114.687 132.611 114.64 132.611 113.566C132.611 112.667 132.843 112.41 134.11 112.41C134.748 112.41 135.48 112.492 136.096 112.632L136.177 111.78C135.562 111.616 134.76 111.522 134.086 111.522C132.17 111.522 131.612 112.176 131.612 113.531C131.612 115.142 131.833 115.504 133.703 115.925C135.294 116.286 135.306 116.38 135.306 117.431C135.306 118.318 135.051 118.645 133.807 118.645C133.099 118.645 132.355 118.528 131.647 118.306L131.484 119.124C132.146 119.392 133.041 119.532 133.784 119.532C135.91 119.532 136.305 118.761 136.305 117.407ZM127.268 119.415H128.266V112.538H130.578V111.639H124.956V112.538H127.268V119.415ZM123.678 111.639H122.679V119.415H123.678V111.639ZM119.473 113.566V114.687C119.473 115.445 119.147 115.714 118.195 115.714H116.278V112.538H118.195C119.147 112.538 119.473 112.795 119.473 113.566ZM120.1 119.415H121.25L119.24 116.485C120.135 116.228 120.472 115.597 120.472 114.675V113.554C120.472 112.363 119.891 111.639 118.23 111.639H115.279V119.415H116.278V116.602H118.172L120.1 119.415ZM113.247 111.639H112.247V119.415H113.247V111.639ZM109.761 113.566V114.71C109.761 115.469 109.436 115.738 108.484 115.738H106.718V112.538H108.484C109.436 112.538 109.761 112.795 109.761 113.566ZM105.719 119.415H106.718V116.637H108.519C110.18 116.637 110.761 115.913 110.761 114.71V113.554C110.761 112.363 110.18 111.639 108.519 111.639H105.719V119.415ZM103.977 117.407C103.977 115.889 103.872 115.586 101.816 115.072C100.282 114.687 100.282 114.64 100.282 113.566C100.282 112.667 100.515 112.41 101.781 112.41C102.42 112.41 103.152 112.492 103.767 112.632L103.849 111.78C103.233 111.616 102.431 111.522 101.758 111.522C99.8411 111.522 99.2834 112.176 99.2834 113.531C99.2834 115.142 99.5041 115.504 101.374 115.925C102.966 116.286 102.977 116.38 102.977 117.431C102.977 118.318 102.722 118.645 101.479 118.645C100.77 118.645 100.027 118.528 99.3182 118.306L99.1556 119.124C99.8178 119.392 100.712 119.532 101.456 119.532C103.581 119.532 103.977 118.761 103.977 117.407ZM90.5478 113.904C90.5478 112.947 91.1285 112.41 92.3484 112.41C93.5684 112.41 94.1487 112.947 94.1487 113.904V117.15C94.1487 118.108 93.568 118.645 92.3484 118.645C91.1288 118.645 90.5478 118.108 90.5478 117.15V113.904ZM95.148 113.881C95.148 112.585 94.3465 111.522 92.3484 111.522C90.3504 111.522 89.5485 112.585 89.5485 113.881V117.174C89.5485 118.469 90.3504 119.532 92.3484 119.532C94.3465 119.532 95.148 118.469 95.148 117.174V113.881ZM87.6901 111.639H86.6912V119.415H87.6901V111.639ZM83.8102 114.115C83.8102 114.675 83.5199 115.025 82.7647 115.025H80.9989V112.503H82.9273C83.5314 112.503 83.8102 112.737 83.8102 113.239V114.115ZM84.0658 117.664C84.0658 118.248 83.7173 118.551 83.0088 118.551H80.9989V115.889H82.9506C83.7173 115.889 84.0658 116.228 84.0658 116.847V117.664ZM83.148 119.415C84.3098 119.415 85.0646 118.832 85.0646 117.746V116.812C85.0646 115.983 84.6002 115.527 83.9265 115.41C84.6117 115.154 84.8091 114.71 84.8091 114.115V113.216C84.8091 112.188 84.205 111.639 82.9854 111.639H80V119.415H83.148Z" fill="#DCD7D2"/>
<path d="M110.259 108.35H114.825V107.451H111.258V104.812H114.557V103.913H111.258V101.473H114.813V100.574H110.259V108.35ZM106.914 108.35H108.284V100.574H107.332V107.229L103.963 100.574H102.592V108.35H103.545V101.73L106.914 108.35ZM100.56 100.574H99.5604V108.35H100.56V100.574ZM97.0745 102.5V103.644C97.0745 104.403 96.7494 104.672 95.7968 104.672H94.0309V101.473H95.7968C96.7494 101.473 97.0745 101.73 97.0745 102.5ZM93.0321 108.35H94.0309V105.571H95.8316C97.4927 105.571 98.0737 104.847 98.0737 103.644V102.489C98.0737 101.298 97.4927 100.574 95.8316 100.574H93.0321V108.35ZM88.2226 100.574H87.2238V108.35H91.5799V107.451H88.2226V100.574ZM84.0058 105.606H81.2411L82.6236 101.298L84.0058 105.606ZM83.2973 100.574H81.9499L79.3359 108.35H80.3466L80.974 106.481H84.2613L84.9005 108.35H85.9109L83.2973 100.574Z" fill="#DCD7D2"/>
</svg>
