<?xml version="1.0" encoding="utf-8"?>
<!-- Generator: Adobe Illustrator 27.8.0, SVG Export Plug-In . SVG Version: 6.00 Build 0)  -->
<svg version="1.1" id="Ebene_1" xmlns="http://www.w3.org/2000/svg" xmlns:xlink="http://www.w3.org/1999/xlink" x="0px" y="0px"
	 viewBox="0 0 93 30" style="enable-background:new 0 0 93 30;" xml:space="preserve">
<style type="text/css">
	.st0{fill:#AFAFAF;}
	.st1{fill:#FFFFFF;}
	.st2{fill:#AAC811;}
</style>
<path class="st0" d="M10,20H5v5h5V20z"/>
<path class="st1" d="M15,28.3V25h-5v5h3.3C13.3,30,15,30,15,28.3z"/>
<path class="st2" d="M13.3,15H10v5h5v-3.3C15,16.7,15,15,13.3,15z"/>
<path class="st1" d="M0,16.7V20h5v-5H1.7C1.7,15,0,15,0,16.7z"/>
<path class="st1" d="M1.7,30H5v-5H0v3.3C0,28.3,0,30,1.7,30z"/>
<path class="st1" d="M83.5,25.2c-0.7,0-1,0.5-1,1.3c0,0.9,0.4,1.3,1,1.3h2.7c0.6,0,0.8-0.3,0.8-0.8v-1.8H83.5z M82,30
	c-1.8,0-2.6-1-2.6-3.5c0-2.3,0.8-3.5,2.6-3.5h5v-0.6c0-0.9-0.5-1.5-1.4-1.5h-5.4v-2.3h6.6c2,0,3.3,1.4,3.3,3.6v5.7
	c0,1.4-0.7,2.1-2,2.1H82z"/>
<path class="st1" d="M30.5,30v-6.4c0-1.8-0.7-2.6-2.3-2.6H26v9h-3V15h3v3.7h3.2c3.5,0,4.3,2.2,4.3,4.1V30H30.5z"/>
<path class="st1" d="M39,25.2c-0.7,0-1,0.5-1,1.3c0,0.9,0.4,1.3,1,1.3h2.7c0.6,0,0.8-0.3,0.8-0.8v-1.8H39z M37.5,30
	c-1.8,0-2.6-1-2.6-3.5c0-2.3,0.8-3.5,2.6-3.5h5v-0.6c0-0.9-0.5-1.5-1.4-1.5h-5.4v-2.3h6.6c2,0,3.3,1.4,3.3,3.6v5.7
	c0,1.4-0.7,2.1-1.9,2.1H37.5z"/>
<path class="st1" d="M54.4,30v-6.4c0-1.8-0.7-2.6-2.3-2.6h-1.4c-0.6,0-0.8,0.3-0.8,0.8V30h-3v-9.2c0-1.4,0.6-2.1,2-2.1h4.4
	c2.7,0,4.1,1.4,4.1,4.1V30H54.4z"/>
<path class="st1" d="M64,30c-2.6,0-3.9-1.3-3.9-3.7V21h-1.2v-2.3h1.2V15h3v3.7h3.1V21h-3.1v4.9c0,1.8,0.9,1.9,2.5,1.9h0.5V30H64z"/>
<path class="st1" d="M75,30v-6.4c0-1.8-0.7-2.6-2.3-2.6h-2.2v9h-3V15h3v3.7h3.2c3.5,0,4.3,2.2,4.3,4.1V30H75z"/>
</svg>
